<svg width="325" height="66" viewBox="0 0 325 66" fill="none" xmlns="http://www.w3.org/2000/svg">
<g clip-path="url(#clip0_316_433)">
<path d="M58.9522 48.0067L31.5957 4.68358L31.981 0L63.1904 16.3925V49.1775L58.9522 51.129V48.0067Z" fill="#A7D046"/>
<path d="M0 48.7873L3.13058 50.1838L32.7506 3.22839L35.8451 2.02162L31.9801 0L0 16.3925V48.7873Z" fill="#32B751"/>
<path d="M30.8243 65.5701L2.69727 49.9582L13.8529 33.1784L31.5949 60.4962L30.8243 65.5701Z" fill="#08793F"/>
<path d="M0 48.7873L4.06318 50.7388L3.85302 48.3969L13.8708 33.1754L11.5591 30.0529L0 16.3925V48.7873Z" fill="#1AA64F"/>
<path d="M31.5955 66L58.9519 51.129L61.2637 48.3969L48.9943 31.9496L31.5955 60.4962H30.8248L25.9062 62.8289L31.5955 66Z" fill="#06AB4D"/>
<path d="M58.9514 48.0067L48.9336 32.0044C48.9336 32.0044 51.4592 29.8091 52.4013 28.8821C53.3435 27.9551 63.1898 16.3925 63.1898 16.3925V49.1775L58.9514 51.129V48.0067Z" fill="#94C837"/>
<path d="M91.3823 26.5972L86.6392 16.5615L82.273 26.5972H91.3823ZM79.5023 32.8057C79.3906 33.0608 79.2642 33.3443 79.1246 33.6561C78.985 33.968 78.9144 34.209 78.9144 34.3791C78.9144 34.6909 79.1525 34.8468 79.628 34.8468V35.3571H74.4648V34.8468C74.6328 34.8468 74.7727 34.8327 74.8846 34.8043C75.0246 34.7759 75.1504 34.6909 75.2624 34.5492C75.3744 34.4074 75.5003 34.209 75.6403 33.9539C75.7802 33.6704 75.9621 33.3018 76.1859 32.8482L83.784 15.6685C84.0081 15.1865 84.1764 14.8322 84.2881 14.6054C84.3998 14.3503 84.4557 14.1518 84.4557 14.0101C84.4557 13.6699 84.2044 13.4997 83.7002 13.4997V12.9895H89.8294V13.4997C89.3819 13.4997 89.1577 13.6699 89.1577 14.0101C89.1577 14.1802 89.2275 14.4069 89.3679 14.6904C89.5075 14.9456 89.6898 15.3141 89.9132 15.7961L97.9738 32.7207C98.2251 33.2309 98.4214 33.6279 98.561 33.9113C98.7014 34.1948 98.827 34.4074 98.9387 34.5492C99.0791 34.6909 99.2187 34.7759 99.3591 34.8043C99.4988 34.8327 99.695 34.8468 99.9463 34.8468V35.3571H94.1111V34.8468C94.4469 34.8468 94.6711 34.8043 94.7828 34.7193C94.8952 34.6058 94.9511 34.45 94.9511 34.2515C94.9511 34.1097 94.9092 33.968 94.8247 33.8263C94.7688 33.6561 94.6292 33.316 94.405 32.8057L92.8103 29.4038H80.9295L79.5023 32.8057Z" fill="#086538"/>
<path d="M101.625 34.8468C102.073 34.8468 102.353 34.776 102.464 34.6342C102.605 34.4641 102.674 34.1381 102.674 33.6562V18.3475C102.674 17.8656 102.605 17.5537 102.464 17.412C102.353 17.2419 102.073 17.1569 101.625 17.1569V16.6465H106.326V17.1569C105.879 17.1569 105.585 17.2419 105.445 17.412C105.333 17.5537 105.277 17.8656 105.277 18.3475V33.6562C105.277 34.1381 105.333 34.4641 105.445 34.6342C105.585 34.776 105.879 34.8468 106.326 34.8468V35.3572H101.625V34.8468Z" fill="#086538"/>
<path d="M110.902 34.8468C111.35 34.8468 111.644 34.7618 111.784 34.5917C111.924 34.3932 111.993 34.1381 111.993 33.8263V14.5203C111.993 14.2085 111.91 13.9676 111.741 13.7975C111.602 13.599 111.294 13.4997 110.818 13.4997V12.9895H117.913V13.4997C117.269 13.4997 116.947 13.6841 116.947 14.0526C116.947 14.2227 117.003 14.3786 117.115 14.5203L123.958 28.128L131.052 14.5203C131.08 14.4353 131.108 14.3503 131.137 14.2652C131.193 14.1802 131.22 14.0951 131.22 14.0101C131.22 13.8683 131.137 13.7549 130.968 13.6699C130.829 13.5565 130.563 13.4997 130.171 13.4997V12.9895H137.685V13.4997C137.209 13.4997 136.887 13.599 136.72 13.7975C136.579 13.9676 136.51 14.2085 136.51 14.5203V33.8263C136.51 34.1381 136.579 34.3932 136.72 34.5917C136.887 34.7618 137.209 34.8468 137.685 34.8468V35.3571H131.808V34.8468C132.284 34.8468 132.592 34.7618 132.731 34.5917C132.9 34.3932 132.984 34.1381 132.984 33.8263V17.0293L132.858 16.9442L123.916 34.9319L114.974 16.9442L114.932 17.0293V33.8263C114.905 34.1381 114.96 34.3932 115.1 34.5917C115.24 34.7618 115.506 34.8468 115.897 34.8468V35.3571H110.902V34.8468Z" fill="#086538"/>
<path d="M142.472 18.3475C142.472 17.8656 142.402 17.5537 142.261 17.412C142.15 17.2419 141.898 17.1569 141.506 17.1569V16.6465H158.424C158.843 16.6465 159.123 16.5757 159.263 16.4339C159.403 16.2638 159.473 15.9946 159.473 15.626H159.977V20.0484H159.473C159.473 19.6799 159.403 19.4248 159.263 19.2831C159.123 19.113 158.843 19.0279 158.424 19.0279H145.242V24.556H154.52C154.939 24.556 155.219 24.4851 155.359 24.3434C155.499 24.1733 155.569 23.904 155.569 23.5354H156.073V27.9579H155.569C155.569 27.5894 155.499 27.3343 155.359 27.1926C155.219 27.0224 154.939 26.9374 154.52 26.9374H145.242V32.9758H158.885C159.306 32.9758 159.585 32.9049 159.725 32.7632C159.865 32.5931 159.935 32.3237 159.935 31.9552H160.439V36.2501H159.935C159.935 35.8816 159.865 35.6406 159.725 35.5273C159.585 35.4139 159.306 35.3571 158.885 35.3571H141.506V34.8468C141.898 34.8468 142.15 34.776 142.261 34.6342C142.402 34.4641 142.472 34.1381 142.472 33.6562V18.3475Z" fill="#086538"/>
<path d="M163.936 18.3475C163.936 17.8656 163.866 17.5537 163.726 17.412C163.614 17.2419 163.362 17.1569 162.971 17.1569V16.6465H179.889C180.308 16.6465 180.588 16.5757 180.728 16.4339C180.868 16.2638 180.938 15.9946 180.938 15.626H181.441V20.0484H180.938C180.938 19.6799 180.868 19.4248 180.728 19.2831C180.588 19.113 180.308 19.0279 179.889 19.0279H166.707V24.556H175.985C176.404 24.556 176.684 24.4851 176.824 24.3434C176.964 24.1733 177.034 23.904 177.034 23.5354H177.538V27.9579H177.034C177.034 27.5894 176.964 27.3343 176.824 27.1926C176.684 27.0224 176.404 26.9374 175.985 26.9374H166.707V32.9758H180.35C180.77 32.9758 181.05 32.9049 181.19 32.7632C181.33 32.5931 181.4 32.3237 181.4 31.9552H181.904V36.2501H181.4C181.4 35.8816 181.33 35.6406 181.19 35.5273C181.05 35.4139 180.77 35.3571 180.35 35.3571H162.971V34.8468C163.362 34.8468 163.614 34.776 163.726 34.6342C163.866 34.4641 163.936 34.1381 163.936 33.6562V18.3475Z" fill="#086538"/>
<path d="M188.089 33.6562C188.089 34.1381 188.145 34.4641 188.258 34.6342C188.397 34.776 188.691 34.8468 189.139 34.8468V35.3572H184.438V34.8468C184.885 34.8468 185.165 34.776 185.277 34.6342C185.417 34.4641 185.487 34.1381 185.487 33.6562V18.3475C185.487 17.8656 185.417 17.5537 185.277 17.412C185.165 17.2419 184.885 17.1569 184.438 17.1569V16.6465H197.283C199.13 16.6465 200.473 17.1144 201.313 18.0498C202.153 18.9854 202.572 20.2611 202.572 21.877C202.572 23.5213 202.125 24.7686 201.229 25.6192C200.362 26.4413 199.116 26.8807 197.493 26.9374L202.111 34.0814C202.306 34.3932 202.475 34.6059 202.614 34.7193C202.755 34.8043 202.936 34.8468 203.16 34.8468V35.3572H198.627V34.8468C198.935 34.8468 199.116 34.8327 199.172 34.8043C199.256 34.7477 199.298 34.6484 199.298 34.5067C199.298 34.365 199.256 34.2232 199.172 34.0814C199.088 33.9396 198.976 33.7413 198.836 33.4861L194.722 26.9374H188.089V33.6562ZM197.031 24.556C198.039 24.556 198.752 24.3293 199.172 23.8757C199.592 23.4221 199.802 22.7275 199.802 21.792C199.802 20.7714 199.578 20.0343 199.13 19.5807C198.71 19.0988 197.871 18.8578 196.611 18.8578H188.089V24.556H197.031Z" fill="#086538"/>
<path d="M228.6 26.9374C227.62 26.9374 227.131 27.2492 227.131 27.8729H226.627V22.8551H227.131C227.131 23.7056 227.62 24.1308 228.6 24.1308H237.625V24.6411C237.318 24.6411 237.108 24.712 236.996 24.8537C236.912 24.9671 236.87 25.2647 236.87 25.7467V29.4463C236.87 29.9283 236.926 30.2401 237.038 30.3818C237.15 30.5236 237.345 30.6228 237.625 30.6795V31.1898C235.61 32.8057 233.539 33.9255 231.412 34.5492C229.314 35.1729 227.383 35.4847 225.62 35.4847C223.772 35.4847 222.065 35.2296 220.498 34.7193C218.931 34.209 217.573 33.4719 216.426 32.5081C215.279 31.5158 214.383 30.3393 213.739 28.9786C213.095 27.6178 212.773 26.1153 212.773 24.471C212.773 22.7984 213.081 21.2533 213.697 19.8358C214.341 18.4184 215.208 17.1852 216.3 16.1363C217.42 15.059 218.735 14.2227 220.246 13.6274C221.757 13.032 223.408 12.7343 225.199 12.7343C226.99 12.7343 228.488 12.8903 229.691 13.2021C230.923 13.4856 231.931 13.8116 232.714 14.1802C233.497 14.5487 234.099 14.8889 234.519 15.2007C234.967 15.4842 235.317 15.626 235.568 15.626C235.793 15.626 235.946 15.5835 236.031 15.4984C236.142 15.385 236.24 15.2574 236.325 15.1157L236.828 15.4559L233.889 19.8358L233.386 19.4957C233.497 19.3822 233.553 19.2122 233.553 18.9854C233.553 18.7303 233.344 18.4184 232.924 18.0498C232.504 17.6813 231.917 17.3127 231.161 16.9442C230.433 16.5757 229.566 16.2638 228.558 16.0087C227.55 15.7536 226.459 15.626 225.284 15.626C223.716 15.626 222.359 15.867 221.212 16.3489C220.064 16.8025 219.113 17.4261 218.357 18.2199C217.629 18.9854 217.084 19.8784 216.72 20.899C216.384 21.9195 216.216 22.9968 216.216 24.1308C216.216 25.5199 216.454 26.7531 216.929 27.8304C217.434 28.8793 218.077 29.7723 218.861 30.5094C219.672 31.2182 220.596 31.7709 221.631 32.1679C222.667 32.5364 223.744 32.7207 224.864 32.7207C226.711 32.7207 228.362 32.4797 229.818 31.9977C231.273 31.5158 232.476 30.9063 233.428 30.1692V26.9374H228.6Z" fill="#086538"/>
<path d="M244.287 33.6562C244.287 34.1381 244.342 34.4641 244.455 34.6342C244.594 34.776 244.888 34.8468 245.336 34.8468V35.3572H240.635V34.8468C241.082 34.8468 241.362 34.776 241.474 34.6342C241.614 34.4641 241.684 34.1381 241.684 33.6562V18.3475C241.684 17.8656 241.614 17.5537 241.474 17.412C241.362 17.2419 241.082 17.1569 240.635 17.1569V16.6465H253.48C255.327 16.6465 256.671 17.1144 257.511 18.0498C258.35 18.9854 258.77 20.2611 258.77 21.877C258.77 23.5213 258.322 24.7686 257.426 25.6192C256.559 26.4413 255.313 26.8807 253.69 26.9374L258.308 34.0814C258.504 34.3932 258.672 34.6059 258.811 34.7193C258.952 34.8043 259.133 34.8468 259.358 34.8468V35.3572H254.824V34.8468C255.132 34.8468 255.313 34.8327 255.369 34.8043C255.454 34.7477 255.496 34.6484 255.496 34.5067C255.496 34.365 255.454 34.2232 255.369 34.0814C255.285 33.9396 255.174 33.7413 255.033 33.4861L250.919 26.9374H244.287V33.6562ZM253.228 24.556C254.236 24.556 254.95 24.3293 255.369 23.8757C255.79 23.4221 255.999 22.7275 255.999 21.792C255.999 20.7714 255.776 20.0343 255.327 19.5807C254.908 19.0988 254.068 18.8578 252.809 18.8578H244.287V24.556H253.228Z" fill="#086538"/>
<path d="M270.998 18.7728C269.795 18.7728 268.704 18.957 267.724 19.3256C266.773 19.6941 265.961 20.2044 265.289 20.8564C264.618 21.5085 264.1 22.2739 263.736 23.1527C263.372 24.0315 263.191 24.9671 263.191 25.9593C263.191 26.9799 263.372 27.9296 263.736 28.8085C264.1 29.6873 264.618 30.4527 265.289 31.1047C265.961 31.7568 266.773 32.2812 267.724 32.6781C268.704 33.0467 269.795 33.2309 270.998 33.2309C272.202 33.2309 273.28 33.0467 274.231 32.6781C275.211 32.2812 276.036 31.7568 276.708 31.1047C277.38 30.4527 277.897 29.6873 278.261 28.8085C278.625 27.9296 278.807 26.9799 278.807 25.9593C278.807 24.9671 278.625 24.0315 278.261 23.1527C277.897 22.2739 277.38 21.5085 276.708 20.8564C276.036 20.2044 275.211 19.6941 274.231 19.3256C273.28 18.957 272.202 18.7728 270.998 18.7728ZM270.998 16.3914C272.622 16.3914 274.077 16.6465 275.364 17.1569C276.68 17.6671 277.799 18.3617 278.723 19.2405C279.646 20.091 280.346 21.0974 280.822 22.2598C281.325 23.4221 281.578 24.6694 281.578 26.0019C281.578 27.3343 281.325 28.5816 280.822 29.744C280.346 30.9063 279.646 31.9269 278.723 32.8057C277.799 33.6562 276.68 34.3224 275.364 34.8043C274.077 35.2579 272.622 35.4847 270.998 35.4847C269.376 35.4847 267.906 35.2579 266.591 34.8043C265.303 34.3224 264.198 33.6562 263.274 32.8057C262.351 31.9269 261.637 30.9063 261.134 29.744C260.657 28.5816 260.42 27.3343 260.42 26.0019C260.42 24.6694 260.657 23.4221 261.134 22.2598C261.637 21.0974 262.351 20.091 263.274 19.2405C264.198 18.3617 265.303 17.6671 266.591 17.1569C267.906 16.6465 269.376 16.3914 270.998 16.3914Z" fill="#086538"/>
<path d="M302.876 29.4038C302.876 30.5945 302.597 31.5867 302.037 32.3805C301.477 33.1743 300.749 33.8121 299.854 34.2941C298.958 34.7477 297.965 35.0594 296.873 35.2296C295.782 35.3997 294.705 35.4848 293.641 35.4848C292.578 35.4848 291.5 35.3997 290.408 35.2296C289.317 35.0594 288.323 34.7477 287.428 34.2941C286.532 33.8121 285.805 33.1743 285.245 32.3805C284.685 31.5867 284.405 30.5945 284.405 29.4038V18.3475C284.405 17.8656 284.35 17.5537 284.237 17.412C284.125 17.2419 283.887 17.1569 283.523 17.1569V16.6465H287.89V17.1569C287.526 17.1569 287.288 17.2419 287.176 17.412C287.064 17.5537 287.008 17.8656 287.008 18.3475V28.851C287.008 30.4669 287.61 31.6009 288.813 32.2529C290.016 32.9049 291.626 33.2309 293.641 33.2309C295.655 33.2309 297.265 32.9049 298.469 32.2529C299.672 31.6009 300.274 30.4669 300.274 28.851V18.3475C300.274 17.8656 300.218 17.5537 300.105 17.412C299.994 17.2419 299.756 17.1569 299.392 17.1569V16.6465H303.758V17.1569C303.394 17.1569 303.156 17.2419 303.044 17.412C302.932 17.5537 302.876 17.8656 302.876 18.3475V29.4038Z" fill="#086538"/>
<path d="M318.744 24.8112C319.919 24.8112 320.773 24.5419 321.304 24.0032C321.864 23.4646 322.144 22.7275 322.144 21.792C322.144 20.7714 321.808 20.0343 321.137 19.5807C320.493 19.0988 319.499 18.8578 318.156 18.8578H311.019V24.8112H318.744ZM308.417 18.3475C308.417 17.8656 308.347 17.5537 308.206 17.412C308.095 17.2419 307.815 17.1569 307.367 17.1569V16.6465H318.617C322.816 16.6465 324.915 18.39 324.915 21.877C324.915 22.6708 324.747 23.3937 324.411 24.0458C324.075 24.6978 323.627 25.2647 323.067 25.7467C322.536 26.2003 321.906 26.5546 321.179 26.8098C320.479 27.065 319.737 27.1926 318.953 27.1926H311.019V33.6562C311.019 34.1381 311.076 34.4641 311.187 34.6342C311.327 34.776 311.621 34.8468 312.069 34.8468V35.3572H307.367V34.8468C307.815 34.8468 308.095 34.776 308.206 34.6342C308.347 34.4641 308.417 34.1381 308.417 33.6562V18.3475Z" fill="#086538"/>
<path d="M83.4105 58.9102C83.4105 59.1769 83.3298 59.4141 83.1692 59.6216C82.935 59.918 82.6495 60.1922 82.3129 60.4441C81.362 61.1704 80.2062 61.5334 78.8457 61.5334C77.1628 61.5334 75.8021 61.0222 74.7633 59.9995C74.2512 59.4808 73.9001 58.9769 73.7099 58.4878C73.3734 57.5393 73.2051 56.6945 73.2051 55.9534C73.2051 55.1679 73.3734 54.3231 73.7099 53.4191C74.0464 52.5743 74.6902 51.8406 75.6412 51.2182C76.5922 50.5957 77.6605 50.3067 78.8457 50.3512C80.4544 50.3512 81.7932 50.8773 82.8613 51.9296C83.0808 52.1519 83.191 52.4261 83.191 52.7521C83.1762 53.4783 82.8031 53.8637 82.0717 53.9082C81.7932 53.9082 81.5303 53.8044 81.2813 53.5969C80.6228 52.93 79.8114 52.5965 78.8457 52.5965C77.9087 52.5965 77.1408 52.9077 76.541 53.5302C75.9558 54.1527 75.6631 54.9604 75.6631 55.9534C75.6631 56.9464 75.9558 57.7542 76.541 58.3766C77.1408 58.9843 77.9087 59.2881 78.8457 59.2881C79.9572 59.2881 80.7911 58.925 81.3472 58.1988C81.552 57.932 81.8522 57.7838 82.247 57.7542C83.0079 57.7986 83.3957 58.1839 83.4105 58.9102Z" fill="#F5AF14"/>
<path d="M210.713 58.9102C210.713 59.1769 210.632 59.4141 210.472 59.6216C210.238 59.918 209.952 60.1922 209.616 60.4441C208.665 61.1704 207.509 61.5334 206.148 61.5334C204.465 61.5334 203.105 61.0222 202.066 59.9995C201.554 59.4808 201.203 58.9769 201.013 58.4878C200.676 57.5393 200.508 56.6945 200.508 55.9534C200.508 55.1679 200.676 54.3231 201.013 53.4191C201.349 52.5743 201.993 51.8406 202.944 51.2182C203.895 50.5957 204.963 50.3067 206.148 50.3512C207.758 50.3512 209.097 50.8773 210.165 51.9296C210.383 52.1519 210.494 52.4261 210.494 52.7521C210.479 53.4783 210.106 53.8637 209.374 53.9082C209.097 53.9082 208.833 53.8044 208.584 53.5969C207.925 52.93 207.114 52.5965 206.148 52.5965C205.211 52.5965 204.443 52.9077 203.844 53.5302C203.258 54.1527 202.966 54.9604 202.966 55.9534C202.966 56.9464 203.258 57.7542 203.844 58.3766C204.443 58.9843 205.211 59.2881 206.148 59.2881C207.26 59.2881 208.094 58.925 208.65 58.1988C208.855 57.932 209.155 57.7838 209.55 57.7542C210.311 57.7986 210.698 58.1839 210.713 58.9102Z" fill="#F5AF14"/>
<path d="M217.572 55.9534C217.572 55.1679 217.741 54.3231 218.077 53.4191C218.414 52.5743 219.058 51.8406 220.009 51.2182C220.96 50.5957 222.028 50.3067 223.213 50.3512C224.895 50.3512 226.249 50.8699 227.273 51.9073C227.434 52.0852 227.58 52.2557 227.712 52.4187C227.858 52.5816 227.975 52.7595 228.063 52.9522C228.165 53.1301 228.253 53.2783 228.326 53.3968C228.4 53.5154 228.465 53.6784 228.524 53.8859C228.582 54.0786 228.626 54.2194 228.656 54.3083C228.684 54.3972 228.714 54.5528 228.743 54.7751C228.773 54.9826 228.787 55.1087 228.787 55.1531C228.801 55.1975 228.816 55.3383 228.831 55.5755C228.846 55.8127 228.853 55.9386 228.853 55.9534C228.853 56.7686 228.677 57.6134 228.326 58.4878C228.004 59.3177 227.36 60.0514 226.395 60.6886C225.429 61.3112 224.369 61.5928 223.213 61.5334C221.53 61.5334 220.169 61.0222 219.131 59.9995C218.619 59.4808 218.267 58.9769 218.077 58.4878C217.741 57.5393 217.572 56.6945 217.572 55.9534ZM220.908 53.5302C220.323 54.1527 220.03 54.9604 220.03 55.9534C220.03 56.9464 220.323 57.7542 220.908 58.3766C221.508 58.9843 222.276 59.2881 223.213 59.2881C224.164 59.2881 224.932 58.9843 225.517 58.3766C226.102 57.7542 226.395 56.9464 226.395 55.9534C226.395 54.9456 226.102 54.1378 225.517 53.5302C224.932 52.9077 224.164 52.5965 223.213 52.5965C222.276 52.5965 221.508 52.9077 220.908 53.5302Z" fill="#F5AF14"/>
<path d="M247.964 50.3512C250.701 50.3512 252.068 51.9221 252.068 55.0642V60.0884C252.068 60.5035 251.959 60.8295 251.739 61.0666C251.534 61.2889 251.242 61.4001 250.861 61.4001C250.481 61.4001 250.181 61.2889 249.961 61.0666C249.757 60.8295 249.654 60.5035 249.654 60.0884V55.3532C249.654 53.5154 248.937 52.5965 247.503 52.5965C246.757 52.6114 246.179 52.8855 245.77 53.4191C245.36 53.9526 245.155 54.7085 245.155 55.6866V60.0884C245.155 60.5035 245.045 60.8295 244.826 61.0666C244.621 61.2889 244.329 61.4001 243.948 61.4001C243.568 61.4001 243.267 61.2889 243.048 61.0666C242.843 60.8295 242.741 60.5035 242.741 60.0884V55.3532C242.741 53.5154 242.024 52.5965 240.59 52.5965C239.844 52.6114 239.266 52.8855 238.856 53.4191C238.447 53.9526 238.242 54.7085 238.242 55.6866V60.0884C238.242 60.5035 238.132 60.8295 237.913 61.0666C237.708 61.2889 237.415 61.4001 237.035 61.4001C236.654 61.4001 236.355 61.2889 236.135 61.0666C235.931 60.8295 235.828 60.5035 235.828 60.0884V51.7962C235.828 51.396 235.931 51.0774 236.135 50.8403C236.355 50.6031 236.654 50.4845 237.035 50.4845C237.811 50.4845 238.212 50.9069 238.242 51.7517H238.286C238.959 50.818 239.924 50.3512 241.182 50.3512C242.675 50.3512 243.729 50.9144 244.343 52.0407H244.387C245.177 50.9144 246.369 50.3512 247.964 50.3512Z" fill="#F5AF14"/>
<path d="M264.423 50.3512C265.974 50.3512 267.211 50.8624 268.132 51.8851C268.542 52.3742 268.856 52.893 269.076 53.4413C269.295 53.9897 269.42 54.4047 269.449 54.6863C269.492 54.9679 269.53 55.3903 269.558 55.9534C269.558 56.7537 269.398 57.606 269.076 58.51C268.798 59.34 268.22 60.0662 267.342 60.6887C266.479 61.2963 265.506 61.5779 264.423 61.5335C262.828 61.5335 261.614 61.0147 260.78 59.9773H260.736V64.2234C260.736 64.6384 260.626 64.957 260.407 65.1794C260.202 65.4165 259.909 65.5351 259.529 65.5351C259.148 65.5351 258.849 65.4165 258.629 65.1794C258.425 64.957 258.322 64.6384 258.322 64.2234V51.7962C258.322 51.396 258.425 51.0774 258.629 50.8403C258.849 50.6031 259.148 50.4845 259.529 50.4845C259.909 50.4845 260.202 50.6031 260.407 50.8403C260.626 51.0774 260.736 51.396 260.736 51.7962V51.9074H260.78C261.614 50.8699 262.828 50.3512 264.423 50.3512ZM263.94 59.2881C264.877 59.2881 265.637 58.9843 266.223 58.3766C266.808 57.7542 267.1 56.9465 267.1 55.9534C267.1 54.9604 266.808 54.1527 266.223 53.5302C265.637 52.9077 264.877 52.5965 263.94 52.5965C263.004 52.5965 262.235 52.9077 261.636 53.5302C261.036 54.1527 260.736 54.9604 260.736 55.9534C260.736 56.9316 261.036 57.7319 261.636 58.3544C262.25 58.9769 263.019 59.2881 263.94 59.2881Z" fill="#F5AF14"/>
<path d="M90.9947 45.9271C91.2142 45.69 91.5136 45.5714 91.8944 45.5714C92.2745 45.5714 92.5669 45.69 92.7717 45.9271C92.9912 46.1495 93.1013 46.4681 93.1013 46.8831V60.0885C93.1013 60.5035 92.9912 60.8295 92.7717 61.0666C92.5669 61.2889 92.2745 61.4001 91.8944 61.4001C91.5136 61.4001 91.2142 61.2889 90.9947 61.0666C90.7899 60.8295 90.6875 60.5035 90.6875 60.0885V46.8831C90.6875 46.4681 90.7899 46.1495 90.9947 45.9271Z" fill="#F5AF14"/>
<path d="M105.994 52.5298C105.643 52.5298 105.277 52.5891 104.897 52.7077C104.545 52.8262 104.172 53.0337 103.777 53.3301C103.368 53.6117 103.075 54.1231 102.899 54.8641H109.022C108.847 54.1378 108.489 53.5747 107.947 53.1745C107.421 52.7595 106.769 52.5446 105.994 52.5298ZM110.427 59.6883C109.417 60.9184 107.976 61.5334 106.103 61.5334C104.392 61.5334 102.995 61.0222 101.912 59.9995C101.4 59.4808 101.049 58.9769 100.858 58.4878C100.522 57.5393 100.354 56.6945 100.354 55.9534C100.354 55.1679 100.522 54.3231 100.858 53.4191C101.195 52.5743 101.839 51.8406 102.79 51.2182C103.741 50.5957 104.809 50.3067 105.994 50.3512C107.5 50.3512 108.774 50.8328 109.813 51.7962C110.851 52.7595 111.371 53.9229 111.371 55.2865V55.3976C111.371 55.8423 111.239 56.1906 110.975 56.4425C110.727 56.6945 110.383 56.8204 109.944 56.8204H102.899C103.046 57.5911 103.404 58.2062 103.974 58.6657C104.56 59.1251 105.27 59.3548 106.103 59.3548C107.186 59.3548 108.035 58.9917 108.649 58.2655C108.913 57.9394 109.212 57.7912 109.549 57.8209C110.295 57.8505 110.676 58.2284 110.691 58.9547C110.691 59.2214 110.602 59.466 110.427 59.6883Z" fill="#F5AF14"/>
<path d="M126.65 50.4845C127.031 50.4845 127.33 50.6031 127.55 50.8403C127.769 51.0774 127.88 51.396 127.88 51.7962V60.0884C127.88 60.5034 127.769 60.8294 127.55 61.0666C127.33 61.2889 127.031 61.4001 126.65 61.4001C126.285 61.4001 125.992 61.2889 125.772 61.0666C125.567 60.8294 125.465 60.5034 125.465 60.0884V59.9773H125.421C124.573 61.0147 123.358 61.5334 121.778 61.5334C120.227 61.5334 118.984 61.0222 118.047 59.9995C117.638 59.5104 117.323 58.9917 117.103 58.4433C116.884 57.8801 116.76 57.4726 116.73 57.2206C116.701 56.9687 116.672 56.5463 116.643 55.9534C116.643 55.1679 116.796 54.3157 117.103 53.3968C117.382 52.552 117.96 51.8258 118.837 51.2182C119.715 50.5957 120.695 50.3067 121.778 50.3512C123.358 50.3512 124.573 50.8699 125.421 51.9073H125.465V51.7962C125.465 51.396 125.567 51.0774 125.772 50.8403C125.992 50.6031 126.285 50.4845 126.65 50.4845ZM119.979 58.3766C120.564 58.9843 121.324 59.2881 122.261 59.2881C123.198 59.2881 123.966 58.9769 124.565 58.3544C125.165 57.7319 125.465 56.9316 125.465 55.9534C125.465 54.9604 125.165 54.1527 124.565 53.5302C123.98 52.9077 123.212 52.5965 122.261 52.5965C121.324 52.5965 120.564 52.9077 119.979 53.5302C119.393 54.1527 119.101 54.9604 119.101 55.9534C119.101 56.9464 119.393 57.7542 119.979 58.3766Z" fill="#F5AF14"/>
<path d="M285.754 50.4845C286.134 50.4845 286.434 50.6031 286.653 50.8403C286.873 51.0774 286.983 51.396 286.983 51.7962V60.0884C286.983 60.5034 286.873 60.8294 286.653 61.0666C286.434 61.2889 286.134 61.4001 285.754 61.4001C285.388 61.4001 285.095 61.2889 284.876 61.0666C284.671 60.8294 284.568 60.5034 284.568 60.0884V59.9773H284.525C283.676 61.0147 282.462 61.5334 280.882 61.5334C279.33 61.5334 278.087 61.0222 277.151 59.9995C276.741 59.5104 276.426 58.9917 276.207 58.4433C275.987 57.8801 275.863 57.4726 275.834 57.2206C275.804 56.9687 275.776 56.5463 275.746 55.9534C275.746 55.1679 275.9 54.3157 276.207 53.3968C276.485 52.552 277.063 51.8258 277.94 51.2182C278.818 50.5957 279.799 50.3067 280.882 50.3512C282.462 50.3512 283.676 50.8699 284.525 51.9073H284.568V51.7962C284.568 51.396 284.671 51.0774 284.876 50.8403C285.095 50.6031 285.388 50.4845 285.754 50.4845ZM279.082 58.3766C279.667 58.9843 280.428 59.2881 281.364 59.2881C282.301 59.2881 283.069 58.9769 283.669 58.3544C284.269 57.7319 284.568 56.9316 284.568 55.9534C284.568 54.9604 284.269 54.1527 283.669 53.5302C283.084 52.9077 282.315 52.5965 281.364 52.5965C280.428 52.5965 279.667 52.9077 279.082 53.5302C278.497 54.1527 278.204 54.9604 278.204 55.9534C278.204 56.9464 278.497 57.7542 279.082 58.3766Z" fill="#F5AF14"/>
<path d="M140.824 50.3512C142.272 50.3512 143.377 50.7736 144.137 51.6184C144.898 52.4631 145.279 53.6933 145.279 55.3087V60.0884C145.279 60.5035 145.169 60.8295 144.949 61.0666C144.745 61.2889 144.452 61.4001 144.072 61.4001C143.691 61.4001 143.391 61.2889 143.172 61.0666C142.967 60.8295 142.864 60.5035 142.864 60.0884V55.5755C142.864 54.6122 142.638 53.8785 142.184 53.3746C141.73 52.8559 141.073 52.5965 140.209 52.5965C139.302 52.5965 138.592 52.893 138.08 53.4858C137.568 54.0786 137.312 54.8863 137.312 55.909V60.0884C137.312 60.5035 137.202 60.8295 136.983 61.0666C136.778 61.2889 136.485 61.4001 136.105 61.4001C135.725 61.4001 135.425 61.2889 135.206 61.0666C135.001 60.8295 134.898 60.5035 134.898 60.0884V51.7962C134.898 51.3812 135.001 51.0626 135.206 50.8403C135.425 50.6031 135.725 50.4845 136.105 50.4845C136.485 50.4845 136.778 50.6031 136.983 50.8403C137.202 51.0626 137.312 51.3812 137.312 51.7962V51.8629H137.356C138.161 50.855 139.317 50.3512 140.824 50.3512Z" fill="#F5AF14"/>
<path d="M299.058 50.3512C300.506 50.3512 301.612 50.7736 302.372 51.6184C303.133 52.4631 303.513 53.6933 303.513 55.3087V60.0884C303.513 60.5035 303.403 60.8295 303.184 61.0666C302.979 61.2889 302.687 61.4001 302.307 61.4001C301.926 61.4001 301.625 61.2889 301.406 61.0666C301.201 60.8295 301.099 60.5035 301.099 60.0884V55.5755C301.099 54.6122 300.872 53.8785 300.419 53.3746C299.965 52.8559 299.307 52.5965 298.444 52.5965C297.536 52.5965 296.827 52.893 296.315 53.4858C295.803 54.0786 295.547 54.8863 295.547 55.909V60.0884C295.547 60.5035 295.437 60.8295 295.217 61.0666C295.012 61.2889 294.72 61.4001 294.34 61.4001C293.959 61.4001 293.66 61.2889 293.44 61.0666C293.235 60.8295 293.133 60.5035 293.133 60.0884V51.7962C293.133 51.3812 293.235 51.0626 293.44 50.8403C293.66 50.6031 293.959 50.4845 294.34 50.4845C294.72 50.4845 295.012 50.6031 295.217 50.8403C295.437 51.0626 295.547 51.3812 295.547 51.7962V51.8629H295.59C296.395 50.855 297.551 50.3512 299.058 50.3512Z" fill="#F5AF14"/>
<path d="M167.197 50.3512C168.645 50.3512 169.75 50.7736 170.51 51.6184C171.271 52.4631 171.652 53.6933 171.652 55.3087V60.0884C171.652 60.5035 171.542 60.8295 171.322 61.0666C171.118 61.2889 170.825 61.4001 170.445 61.4001C170.064 61.4001 169.764 61.2889 169.545 61.0666C169.34 60.8295 169.237 60.5035 169.237 60.0884V55.5755C169.237 54.6122 169.011 53.8785 168.557 53.3746C168.103 52.8559 167.446 52.5965 166.582 52.5965C165.675 52.5965 164.965 52.893 164.453 53.4858C163.941 54.0786 163.685 54.8863 163.685 55.909V60.0884C163.685 60.5035 163.575 60.8295 163.356 61.0666C163.151 61.2889 162.858 61.4001 162.478 61.4001C162.098 61.4001 161.798 61.2889 161.579 61.0666C161.374 60.8295 161.271 60.5035 161.271 60.0884V51.7962C161.271 51.3812 161.374 51.0626 161.579 50.8403C161.798 50.6031 162.098 50.4845 162.478 50.4845C162.858 50.4845 163.151 50.6031 163.356 50.8403C163.575 51.0626 163.685 51.3812 163.685 51.7962V51.8629H163.729C164.534 50.855 165.69 50.3512 167.197 50.3512Z" fill="#F5AF14"/>
<path d="M187.246 50.4845C187.627 50.4845 187.926 50.6031 188.146 50.8403C188.365 51.0774 188.475 51.396 188.475 51.7962V60.3774C188.475 61.1777 188.314 62.0003 187.992 62.8451C187.685 63.6454 187.063 64.3197 186.127 64.8682C185.19 65.4314 184.107 65.6981 182.879 65.6685C181.781 65.6685 180.933 65.5499 180.333 65.3128C179.265 64.9274 178.548 64.4828 178.182 63.9789C178.021 63.7418 177.94 63.4898 177.94 63.223C177.984 62.4968 178.372 62.1189 179.104 62.0893C179.353 62.0893 179.601 62.193 179.85 62.4005C180.596 63.0971 181.584 63.4453 182.813 63.4453C183.822 63.4453 184.612 63.1786 185.183 62.645C185.768 62.1263 186.061 61.4075 186.061 60.4886V59.6216H186.017C185.139 60.6442 183.917 61.1555 182.352 61.1555C180.801 61.1555 179.557 60.659 178.621 59.666C178.211 59.1918 177.897 58.6953 177.677 58.1766C177.473 57.643 177.348 57.2354 177.304 56.9538C177.275 56.6722 177.253 56.2721 177.238 55.7533C177.238 54.9382 177.385 54.1231 177.677 53.3079C177.984 52.4779 178.562 51.7665 179.411 51.1737C180.274 50.5809 181.255 50.3067 182.352 50.3512C183.917 50.3512 185.139 50.8624 186.017 51.8851H186.061V51.7962C186.061 51.396 186.163 51.0774 186.368 50.8403C186.587 50.6031 186.88 50.4845 187.246 50.4845ZM182.79 58.9102C183.786 58.9102 184.576 58.6286 185.161 58.0654C185.761 57.4874 186.061 56.7167 186.061 55.7533C186.061 54.79 185.761 54.0267 185.161 53.4635C184.576 52.8855 183.786 52.5965 182.79 52.5965C181.869 52.5965 181.123 52.8855 180.552 53.4635C179.982 54.0415 179.696 54.8048 179.696 55.7533C179.696 56.7018 179.982 57.4652 180.552 58.0431C181.123 58.6212 181.869 58.9102 182.79 58.9102Z" fill="#F5AF14"/>
<path d="M154.224 48.4171C153.96 48.6838 153.61 48.8172 153.171 48.8172C152.732 48.8172 152.38 48.6838 152.117 48.4171C151.868 48.1502 151.744 47.7945 151.744 47.3499C151.744 46.9053 151.868 46.5497 152.117 46.2828C152.38 46.0161 152.732 45.8827 153.171 45.8827C153.61 45.8827 153.96 46.0161 154.224 46.2828C154.487 46.5497 154.619 46.9053 154.619 47.3499C154.619 47.7945 154.487 48.1502 154.224 48.4171ZM152.271 50.8403C152.49 50.6031 152.79 50.4845 153.171 50.4845C153.551 50.4845 153.843 50.6031 154.048 50.8403C154.267 51.0774 154.377 51.396 154.377 51.7962V60.0885C154.377 60.5035 154.267 60.8295 154.048 61.0666C153.843 61.2889 153.551 61.4001 153.171 61.4001C152.79 61.4001 152.49 61.2889 152.271 61.0666C152.066 60.8295 151.964 60.5035 151.964 60.0885V51.7962C151.964 51.396 152.066 51.0774 152.271 50.8403Z" fill="#F5AF14"/>
<path fill-rule="evenodd" clip-rule="evenodd" d="M309.521 51.238C309.071 51.4802 308.894 51.7579 308.961 52.1166C308.991 52.2744 309.937 54.0426 311.064 56.046C313.039 59.5576 313.108 59.6977 312.977 59.9388C312.903 60.0764 312.467 60.8811 312.009 61.727C311.05 63.4955 310.987 63.7811 311.475 64.17C311.739 64.3806 311.848 64.4096 312.382 64.4096C312.887 64.4096 313.026 64.377 313.216 64.216C313.341 64.1096 313.852 63.2707 314.351 62.3516C314.85 61.4326 316.078 59.1686 317.08 57.3206C318.082 55.4725 319.106 53.5866 319.354 53.1294C319.603 52.6724 319.806 52.1702 319.806 52.0137C319.806 51.2363 318.414 50.7752 317.756 51.3345C317.635 51.4366 316.919 52.6594 316.165 54.0516C315.412 55.4438 314.715 56.7305 314.617 56.9109L314.439 57.2387L314.08 56.624C313.883 56.2859 313.17 55.0136 312.494 53.7966C311.551 52.0982 311.184 51.522 310.913 51.3175C310.484 50.9926 310.027 50.9666 309.521 51.238Z" fill="#F5AF14"/>
</g>
<defs>
<clipPath id="clip0_316_433">
<rect width="325" height="66" fill="white"/>
</clipPath>
</defs>
</svg>
